<?xml version="1.0" encoding="UTF-8" standalone="no"?>
<svg
   viewBox="0 0 733.53082 575.66333"
   version="1.1"
   id="svg4"
   sodipodi:docname="brain-solid2.svg"
   xml:space="preserve"
   inkscape:version="1.2 (dc2aeda, 2022-05-15)"
   width="733.53082"
   height="575.66333"
   xmlns:inkscape="http://www.inkscape.org/namespaces/inkscape"
   xmlns:sodipodi="http://sodipodi.sourceforge.net/DTD/sodipodi-0.dtd"
   xmlns="http://www.w3.org/2000/svg"
   xmlns:svg="http://www.w3.org/2000/svg"><defs
     id="defs8" /><sodipodi:namedview
     id="namedview6"
     pagecolor="#ffffff"
     bordercolor="#000000"
     borderopacity="0.25"
     inkscape:showpageshadow="2"
     inkscape:pageopacity="0.0"
     inkscape:pagecheckerboard="0"
     inkscape:deskcolor="#d1d1d1"
     showgrid="false"
     inkscape:zoom="0.57294444"
     inkscape:cx="243.47911"
     inkscape:cy="191.11801"
     inkscape:window-width="1440"
     inkscape:window-height="811"
     inkscape:window-x="0"
     inkscape:window-y="25"
     inkscape:window-maximized="0"
     inkscape:current-layer="svg4" /><!--! Font Awesome Pro 6.1.1 by @fontawesome - https://fontawesome.com License - https://fontawesome.com/license (Commercial License) Copyright 2022 Fonticons, Inc. --><g
     id="g167"
     transform="translate(0.5,63.163352)"><path
       d="m 184,0 c 30.9,0 56,25.07 56,56 v 400 c 0,30.9 -25.1,56 -56,56 -28.9,0 -52.7,-21.9 -55.7,-50.1 -5.2,1.4 -10.7,2.1 -16.3,2.1 -35.35,0 -64,-28.7 -64,-64 0,-7.4 1.27,-14.6 3.59,-21.2 C 21.43,367.4 0,338.2 0,304 0,272.1 18.71,244.5 45.77,231.7 37.15,220.8 32,206.1 32,192 32,161.3 53.59,135.7 82.41,129.4 80.84,123.9 80,118 80,112 80,82.06 100.6,56.92 128.3,49.93 131.3,21.86 155.1,0 184,0 Z m 199.7,49.93 c 27.7,6.99 48.3,32.13 48.3,62.07 0,6 -0.8,11.9 -2.4,17.4 28.8,6.3 50.4,31.9 50.4,62.6 0,14.1 -5.1,28.8 -13.8,39.7 27.1,12.8 45.8,40.4 45.8,72.3 0,34.2 -21.4,63.4 -51.6,74.8 2.3,6.6 3.6,13.8 3.6,21.2 0,35.3 -28.7,64 -64,64 -5.6,0 -11.1,-0.7 -16.3,-2.1 -3,28.2 -26.8,50.1 -55.7,50.1 -30.9,0 -56,-25.1 -56,-56 V 56 c 0,-30.93 25.1,-56 56,-56 28.9,0 52.7,21.86 55.7,49.93 z"
       id="path2"
       style="fill:#000000;stroke:#000000" /><path
       d="M 678.11353,199.99238 537.53659,151.93253 c -12.33955,-4.16905 -13.60921,-20.94092 -1.72821,-27.5753 L 585.7539,96.467541 C 537.01342,12.147611 481.91295,-5.2183258 412.58692,66.096638 c -7.69285,7.9134 -8.24,4.978038 -6.71437,-5.689342 4.86746,-34.17782 27.62755,-86.023532 62.91764,-105.729595 87.3358,-48.768508 144.80912,10.749242 195.0579,98.17468 l 45.89433,-25.62749 c 11.86091,-6.62316 25.48439,3.22875 22.56944,15.93751 L 699.47962,188.05431 c -2.59001,9.43527 -12.45976,14.94657 -21.36623,11.93782 z"
       id="path10"
       style="fill:#000000;stroke:#000000;stroke-width:0.642359"
       sodipodi:nodetypes="ccscccscscccc" /></g></svg>
